<svg xmlns="http://www.w3.org/2000/svg" xmlns:xlink="http://www.w3.org/1999/xlink" xmlns:lucid="lucid" width="640" height="617.07"><g transform="translate(-471.42857142857144 -220)" lucid:page-tab-id="5MgMzMw2g1R8"><path d="M0 0h1870.87v1322.83H0z" fill="#fff"/><path d="M980 430c0 104.93-85.07 190-190 190s-190-85.07-190-190 85.07-190 190-190 190 85.07 190 190z" stroke="#5e5e5e" fill="url(#a)"/><path d="M620 386c0-3.3 2.7-6 6-6h330.86c3.3 0 6 2.7 6 6v108c0 3.3-2.7 6-6 6H626c-3.3 0-6-2.7-6-6z" stroke="#000" stroke-opacity="0" stroke-width="3" fill="#fff" fill-opacity="0"/><use xlink:href="#b" transform="matrix(1,0,0,1,625,385) translate(28.8333333333334 106.66666666666663)"/><path d="M491.43 646c0-3.3 2.68-6 6-6h588c3.3 0 6 2.7 6 6v165.07c0 3.3-2.7 6-6 6h-588c-3.32 0-6-2.7-6-6z" stroke="#000" stroke-opacity="0" stroke-width="3" fill="#fff" fill-opacity="0"/><use xlink:href="#c" transform="matrix(1,0,0,1,496.42857142857144,645) translate(68.62777777777777 62.22222222222223)"/><use xlink:href="#d" transform="matrix(1,0,0,1,496.42857142857144,645) translate(85.85555555555553 145.7555555555556)"/><defs><linearGradient gradientUnits="userSpaceOnUse" id="a" x1="980" y1="240" x2="600" y2="401.3"><stop offset="0%" stop-color="#fff"/><stop offset="26.47%" stop-color="#5e42e8"/><stop offset="70.17%" stop-color="#4040b2"/></linearGradient><path fill="#fff" d="M382-556c-3 158-18 304-18 470 0 31 6 72-21 86-20 35-87 21-104-6-1-188 14-367 23-549 1-24 13-80-17-80-77 0-131 31-210 31-15-10-43-18-33-45 0-82 83-94 148-109 103-23 215-12 315-40 43-12 91-17 142-23 62-8 95 53 77 116-8 28-47 14-75 18-68 9-134 10-195 30-32 11-31 60-32 101" id="e"/><path fill="#fff" d="M39-49c-7-93 9-204-6-289-18-30-12-41 1-77 37-27 19-97 25-162 2-23-27-37-49-40-11-18-14-56 0-71 17-39 273-99 376-109 72-7 163-32 165 45 1 65-62 51-115 66-63 18-176 24-229 55-41 23-20 107-25 176 83-2 166-25 259-33 74-6 91 70 44 97-80 23-228 35-304 57-18 6-27 18-27 35-9 45 6 274-42 299-35 2-92-5-73-49" id="f"/><path fill="#fff" d="M44-443c79-191 208-366 448-366 141 0 239 118 267 253 46 222-61 413-213 490-83 42-221 78-338 30-55-23-106-43-129-82-26-14-80-140-57-202 2-41 8-89 22-123zm103 115c1 136 75 191 208 191 130 0 180-50 241-135 38-53 55-111 55-169 0-109-73-236-179-227-143 12-260 151-311 271-9 24-14 47-14 69" id="g"/><g id="b"><use transform="matrix(0.13333333333333328,0,0,0.13333333333333328,0,0)" xlink:href="#e"/><use transform="matrix(0.13333333333333328,0,0,0.13333333333333328,94.53333333333329,0)" xlink:href="#f"/><use transform="matrix(0.13333333333333328,0,0,0.13333333333333328,168.2666666666666,0)" xlink:href="#g"/></g><path fill="#5e42e8" d="M382-556c-3 158-18 304-18 470 0 31 6 72-21 86-20 35-87 21-104-6-1-188 14-367 23-549 1-24 13-80-17-80-77 0-131 31-210 31-15-10-43-18-33-45 0-82 83-94 148-109 103-23 215-12 315-40 43-12 91-17 142-23 62-8 95 53 77 116-8 28-47 14-75 18-68 9-134 10-195 30-32 11-31 60-32 101" id="h"/><path fill="#5e42e8" d="M330-158c82-22 193-18 286-31 38 11 58 81 24 113-25 24-71 25-116 25-135 0-238 34-358 47C61 7 4-52 15-159c12-113 37-213 32-340-2-59 2-121-2-178-2-44 35-62 81-61 104-31 222-52 345-64 68-7 103 34 111 94 2 12-3 22-9 31-33 14-62 15-103 16-100 2-196 10-270 40h-8c-18 23-11 79-15 106-1 13 5 22 16 25 82-10 176-25 264-12 44 7 78 26 71 72-7 49-76 30-125 30-78 0-138 22-210 29-24 1-35 28-36 52-2 41-10 83-8 126-19 84 122 51 181 35" id="i"/><path fill="#5e42e8" d="M608-642l-20 77c-36 56-69 94-113 138-49 48-58 40-29 81 33 46 69 89 97 147 44 89 52 141 40 147-3 38-20 49-63 52-68 5-97-106-129-160-40-68-56-162-144-164-53-1-27 78-45 121-7 56-12 123-28 170C157-4 113 24 66-1 46-11 40-39 49-87c19-111 19-139 19-313 0-144 1-187-40-242-27-37-13-94 26-108 103-36 250-59 389-41 63 8 182 85 165 149zm-140 11c-10-39-42-58-96-57-53 12-154 21-179 43-5 9-8 31-8 65 0 151 19 135 127 94 94-36 148-79 156-145" id="j"/><path fill="#5e42e8" d="M103-24C79 10-2-14 8-59c42-186 129-353 193-524 23-62 63-135 99-197 39-38 106-10 109 47 27 100 51 209 81 307 8 25 72 24 72 63 0 44-26 46-37 75 12 83 46 156 55 243 7 63-106 47-114 11-13-58-36-170-57-231-3-4-7-8-9-14-69 4-134 40-198 52-53 21-53 108-81 160-4 16-8 29-18 43zm215-551c-16 18-92 195-73 208 46 2 100-12 123-31-5-30-32-162-38-171-2-3-6-5-12-6" id="k"/><path fill="#5e42e8" d="M39-49c-7-93 9-204-6-289-18-30-12-41 1-77 37-27 19-97 25-162 2-23-27-37-49-40-11-18-14-56 0-71 17-39 273-99 376-109 72-7 163-32 165 45 1 65-62 51-115 66-63 18-176 24-229 55-41 23-20 107-25 176 83-2 166-25 259-33 74-6 91 70 44 97-80 23-228 35-304 57-18 6-27 18-27 35-9 45 6 274-42 299-35 2-92-5-73-49" id="l"/><path fill="#5e42e8" d="M44-443c79-191 208-366 448-366 141 0 239 118 267 253 46 222-61 413-213 490-83 42-221 78-338 30-55-23-106-43-129-82-26-14-80-140-57-202 2-41 8-89 22-123zm103 115c1 136 75 191 208 191 130 0 180-50 241-135 38-53 55-111 55-169 0-109-73-236-179-227-143 12-260 151-311 271-9 24-14 47-14 69" id="m"/><path fill="#5e42e8" d="M629-645c28 177 9 401 28 582 3 29-18 50-47 50-97 0-67-194-71-306-1-24-4-66-3-92 1-39-15-57-30-33-49 79-88 161-139 243-9 15-21 23-34 23-33 0-70-69-89-115-10-23-57-152-73-152-28 0-27 119-31 162-9 93-16 174-27 265-2 3-35 21-48 20-71-3-50-117-43-176 24-211 38-410 84-595 39-67 121 2 138 59 22 73 63 167 84 249 7 23 13 34 20 34 17 0 54-75 107-225 17-48 42-155 115-96 31 25 52 57 59 103" id="n"/><g id="c"><use transform="matrix(0.07777777777777778,0,0,0.07777777777777778,0,0)" xlink:href="#h"/><use transform="matrix(0.07777777777777778,0,0,0.07777777777777778,53.355555555555554,0)" xlink:href="#i"/><use transform="matrix(0.07777777777777778,0,0,0.07777777777777778,105.15555555555555,0)" xlink:href="#j"/><use transform="matrix(0.07777777777777778,0,0,0.07777777777777778,153.22222222222223,0)" xlink:href="#j"/><use transform="matrix(0.07777777777777778,0,0,0.07777777777777778,201.2888888888889,0)" xlink:href="#k"/><use transform="matrix(0.07777777777777778,0,0,0.07777777777777778,246.94444444444446,0)" xlink:href="#l"/><use transform="matrix(0.07777777777777778,0,0,0.07777777777777778,289.9555555555556,0)" xlink:href="#m"/><use transform="matrix(0.07777777777777778,0,0,0.07777777777777778,352.4111111111112,0)" xlink:href="#j"/><use transform="matrix(0.07777777777777778,0,0,0.07777777777777778,400.47777777777776,0)" xlink:href="#n"/></g><path fill="#5e42e8" d="M44-443c79-191 208-366 448-366 141 0 239 118 267 253 46 222-61 413-213 490-83 42-221 78-338 30-55-23-106-43-129-82-26-14-80-140-57-202 2-41 8-89 22-123zm103 115c1 136 75 191 208 191 130 0 180-50 241-135 38-53 55-111 55-169 0-109-73-236-179-227-143 12-260 151-311 271-9 24-14 47-14 69" id="o"/><path fill="#5e42e8" d="M23-677c-68-88 127-122 212-122 113 0 253 24 291 82 92 144-48 310-153 365-52 27-102 48-161 69-56 20-53 15-58 80-4 49-8 103-13 153-3 31-19 46-43 46-44 0-65-28-63-81 5-162 8-330 16-486 3-53-4-75-28-106zm415 73c0-44-44-66-132-66-78 0-124 8-135 26-10 16-14 89-14 218 0 44 22 39 57 25 83-34 224-115 224-203" id="p"/><path fill="#5e42e8" d="M593-790c58 0 99 54 77 117-5 13-15 16-35 14-70-7-152-3-229 7-31 20-24 81-26 127-4 138-16 277-16 422 0 32 4 70-21 83-26 36-88 7-103-20 1-182 10-346 21-521 2-27 11-81-18-84-73-7-138 11-206 3-20-18-39-18-32-51-3-78 74-91 145-91 129 0 251 6 369-8 25-3 49 2 74 2" id="q"/><g id="d"><use transform="matrix(0.07777777777777778,0,0,0.07777777777777778,0,0)" xlink:href="#o"/><use transform="matrix(0.07777777777777778,0,0,0.07777777777777778,62.455555555555556,0)" xlink:href="#p"/><use transform="matrix(0.07777777777777778,0,0,0.07777777777777778,106.32222222222222,0)" xlink:href="#i"/><use transform="matrix(0.07777777777777778,0,0,0.07777777777777778,158.12222222222223,0)" xlink:href="#j"/><use transform="matrix(0.07777777777777778,0,0,0.07777777777777778,206.1888888888889,0)" xlink:href="#k"/><use transform="matrix(0.07777777777777778,0,0,0.07777777777777778,251.84444444444443,0)" xlink:href="#q"/><use transform="matrix(0.07777777777777778,0,0,0.07777777777777778,307.7666666666667,0)" xlink:href="#m"/><use transform="matrix(0.07777777777777778,0,0,0.07777777777777778,370.2222222222223,0)" xlink:href="#j"/></g></defs></g></svg>